{"accessors":[{"bufferView":0,"byteOffset":0,"componentType":5126,"count":324,"max":[4,4,4],"min":[-4,-4,-4],"normalized":false,"type":"VEC3"},{"bufferView":1,"byteOffset":0,"componentType":5126,"count":324,"max":[0.0000610388815402985,0,0.0000763009302318096,1],"min":[-1,-1,-1,-1],"normalized":false,"type":"VEC4"},{"bufferView":2,"byteOffset":0,"componentType":5126,"count":324,"max":[1,1,1],"min":[-1,-1,-1],"normalized":false,"type":"VEC3"},{"bufferView":3,"byteOffset":0,"componentType":5126,"count":324,"max":[1,1],"min":[0,0],"normalized":false,"type":"VEC2"},{"bufferView":4,"byteOffset":0,"componentType":5123,"count":324,"max":[323],"min":[0],"normalized":false,"type":"SCALAR"}],"asset":{"generator":"Godot Engine v4.3.stable.official@77dcf97d82cbfe4e4615475fa52ca03da645dbd8","version":"2.0"},"bufferViews":[{"buffer":0,"byteLength":3888,"byteOffset":0,"byteStride":12,"target":34962},{"buffer":0,"byteLength":5184,"byteOffset":3888,"byteStride":16,"target":34962},{"buffer":0,"byteLength":3888,"byteOffset":9072,"byteStride":12,"target":34962},{"buffer":0,"byteLength":2592,"byteOffset":12960,"byteStride":8,"target":34962},{"buffer":0,"byteLength":648,"byteOffset":15552,"target":34963}],"buffers":[{"byteLength":16200,"uri":"TestScene0.bin"}],"extensionsRequired":["KHR_texture_transform"],"extensionsUsed":["GODOT_single_root","KHR_texture_transform"],"images":[{"uri":"textures%2F_albedo000.png"}],"materials":[{"extensions":{},"pbrMetallicRoughness":{"baseColorFactor":[0.99999988079071,0.99999988079071,0.99999988079071,1],"baseColorTexture":{"extensions":{"KHR_texture_transform":{"scale":[0.5,0.5]}},"index":0},"metallicFactor":0,"roughnessFactor":1}}],"meshes":[{"extras":{"targetNames":[]},"primitives":[{"attributes":{"NORMAL":2,"POSITION":0,"TANGENT":1,"TEXCOORD_0":3},"indices":4,"material":0,"mode":4}]}],"nodes":[{"mesh":0,"name":"CSGCombiner3D2"}],"samplers":[{"magFilter":9728,"minFilter":9986,"wrapS":10497,"wrapT":10497}],"scene":0,"scenes":[{"nodes":[0]}],"textures":[{"sampler":0,"source":0}]}